<svg xmlns="http://www.w3.org/2000/svg" viewBox="0 0 512 512">
  <defs>
    <linearGradient id="g" x1="0%" y1="0%" x2="100%" y2="100%">
      <stop offset="0%" style="stop-color:#006492;stop-opacity:1" />
      <stop offset="100%" style="stop-color:#65587b;stop-opacity:1" />
    </linearGradient>
  </defs>
  <rect width="512" height="512" rx="128" fill="url(#g)" />
  <path d="M160 380V132h60c50 0 90 20 115 55 20 28 25 65 25 105s-5 77-25 105c-25 35-65 55-115 55h-60zm55-50h10c40 0 65-25 75-55 5-15 8-35 8-60s-3-45-8-60c-10-30-35-55-75-55h-10v230z" fill="#fff" />
</svg>
